<?xml version="1.0" encoding="UTF-8"?>
<svg width="16px" height="16px" viewBox="0 0 16 16" version="1.1" xmlns="http://www.w3.org/2000/svg" xmlns:xlink="http://www.w3.org/1999/xlink">
    <!-- Generator: Sketch 62 (91390) - https://sketch.com -->
    <title>media_file_link</title>
    <desc>Created with Sketch.</desc>
    <g id="media_file_link" stroke="none" stroke-width="1" fill="none" fill-rule="evenodd">
        <g transform="translate(0.500000, 0.500000)" stroke="#484848">
            <path d="M0.5,0 C0.223857625,0 0,0.223857625 0,0.5 L0,14.5 C0,14.7761424 0.223857625,15 0.5,15 L10.5,15 C10.7761424,15 11,14.7761424 11,14.5 L11,2.70710678 L8.2928932,0 L0.5,0 Z" id="Rectangle" fill="#FFFFFF" fill-rule="nonzero"></path>
            <g id="Group" transform="translate(2.500000, 6.500000)" fill="#FFFFFF" fill-rule="nonzero">
                <path d="M3.07142857,0.5 L4.78571429,0.5 C5.73248814,0.5 6.5,1.3954305 6.5,2.5 L6.5,4.5 C6.5,5.6045695 5.73248814,6.5 4.78571429,6.5 L3.07142857,6.5 C1.65126779,6.5 0.5,5.15685425 0.5,3.5 C0.5,1.84314575 1.65126779,0.5 3.07142857,0.5 Z" id="Rectangle"></path>
                <path d="M9.07142857,0.5 L10.7857143,0.5 C11.7324881,0.5 12.5,1.3954305 12.5,2.5 L12.5,4.5 C12.5,5.6045695 11.7324881,6.5 10.7857143,6.5 L9.07142857,6.5 C7.65126777,6.5 6.5,5.15685425 6.5,3.5 C6.5,1.84314575 7.65126777,0.5 9.07142857,0.5 Z" id="Rectangle-Copy" transform="translate(9.500000, 3.500000) scale(-1, 1) translate(-9.500000, -3.500000) "></path>
                <rect id="Rectangle" x="2.5" y="2.5" width="8" height="2" rx="1"></rect>
            </g>
            <path d="M11,3 L9,3 C8.44771525,3 8,2.55228475 8,2 L8,0 L8,0" id="Path"></path>
        </g>
    </g>
</svg>